<?xml version="1.0" standalone="no"?>
<!DOCTYPE svg PUBLIC "-//W3C//DTD SVG 20010904//EN"
 "http://www.w3.org/TR/2001/REC-SVG-20010904/DTD/svg10.dtd">
<svg version="1.0" xmlns="http://www.w3.org/2000/svg"
 width="300.000000pt" height="125.000000pt" viewBox="0 0 300.000000 125.000000"
 preserveAspectRatio="xMidYMid meet">
<metadata>
Created by potrace 1.14, written by Peter Selinger 2001-2017
</metadata>
<g transform="translate(0.000000,125.000000) scale(0.100000,-0.100000)"
fill="#000000" stroke="none">
<path d="M399 1159 c-29 -29 -21 -72 36 -199 25 -55 45 -107 45 -115 0 -13
-22 -15 -140 -15 l-140 0 0 -25 0 -25 305 0 305 0 29 32 c61 68 166 28 166
-63 0 -34 -6 -46 -33 -70 -45 -41 -84 -39 -129 6 l-35 35 -140 0 -140 0 6 -35
7 -35 -261 0 -261 0 3 -22 3 -23 275 -3 275 -2 17 29 c34 60 137 50 165 -17
29 -69 -13 -132 -89 -132 -31 0 -46 6 -68 30 -35 38 -50 38 -50 0 l0 -30 -120
0 -120 0 0 -25 0 -25 278 0 277 0 28 30 c23 24 37 30 72 30 36 0 48 -5 69 -31
56 -66 13 -159 -72 -159 -32 0 -45 6 -65 30 l-26 30 -174 0 -173 0 -24 -43
c-13 -23 -53 -73 -88 -110 -51 -54 -63 -73 -60 -95 5 -48 45 -53 413 -59 445
-8 718 17 745 67 36 66 -33 264 -155 444 -166 247 -523 511 -801 591 -105 30
-128 31 -155 4z"/>
<path d="M1915 1166 c-66 -16 -103 -37 -141 -78 -60 -65 -67 -85 -72 -195 l-5
-103 -43 0 -44 0 0 -110 0 -110 45 0 45 0 0 -260 0 -260 150 0 150 0 0 260 0
260 80 0 80 0 0 110 0 110 -80 0 -81 0 3 63 3 62 33 3 c20 2 42 -4 61 -17 16
-12 32 -21 35 -21 3 0 31 50 61 112 59 119 59 113 2 144 -35 19 -150 44 -197
43 -19 0 -57 -6 -85 -13z"/>
<path d="M2587 789 c-42 -10 -79 -31 -119 -68 l-28 -25 0 47 0 47 -125 0 -125
0 2 -362 3 -363 123 -3 122 -3 0 193 c0 106 5 210 10 230 23 81 135 118 197
64 l28 -24 5 -229 5 -228 123 -3 122 -3 0 259 c0 305 -6 339 -75 407 -65 65
-163 89 -268 64z"/>
</g>
</svg>
