<svg width="151" height="112" viewBox="0 0 151 112" version="1.1" xmlns="http://www.w3.org/2000/svg" xmlns:xlink="http://www.w3.org/1999/xlink">
<title>oracle</title>
<desc>Created using Figma</desc>
<g id="Canvas" transform="translate(-373 179)">
<g id="oracle">
<use xlink:href="#path0_fill" transform="translate(373 -179)" fill="#A51412"/>
</g>
</g>
<defs>
<path id="path0_fill" fill-rule="evenodd" d="M 81.5304 14.9073C 64.5304 3.40727 40.6971 -4.09273 37.0304 2.40727C 35.3507 5.38504 37.9383 11.7208 41.5244 20.5011L 41.5245 20.5014C 43.1652 24.5184 45.0148 29.0471 46.7603 34L 18 34L 18 40L 48.7417 40L 51 40L 80.4578 40C 81.7321 35.9429 85.5223 33 90 33C 95.5229 33 100 37.4772 100 43C 100 48.5229 95.5229 53 90 53C 85.5223 53 81.7321 50.0571 80.4578 46L 50.4252 46C 50.8399 47.6363 51.2249 49.3037 51.5721 51L 0 51L 0 57L 52.6128 57L 55 57L 56.4578 57C 57.7321 52.9429 61.5223 50 66 50C 71.5229 50 76 54.4772 76 60C 76 65.5229 71.5229 70 66 70C 61.5223 70 57.7321 67.0571 56.4578 63L 53.2304 63C 53.3358 65.092 53.299 67.0906 53.1419 69L 30 69L 30 75L 52.2114 75L 61 75L 85.4578 75C 86.7321 70.9429 90.5224 68 95 68C 100.523 68 105 72.4772 105 78C 105 83.5229 100.523 88 95 88C 90.5224 88 86.7321 85.0571 85.4578 81L 50.3369 81C 46.9809 89.4479 41.4634 95.4268 37.5551 99.662L 37.555 99.6621L 37.555 99.6621C 34.7171 102.737 32.7276 104.893 33.0304 106.407C 34.0304 111.407 40.0304 111.741 43.5304 111.407L 120.03 111.407C 147.03 111.407 150.03 104.907 150.03 101.407C 150.03 60.668 104.027 29.9415 84.6264 16.9831C 83.5 16.2308 82.4633 15.5383 81.5304 14.9073ZM 94 43C 94 45.2091 92.2091 47 90 47C 87.7909 47 86 45.2091 86 43C 86 40.7909 87.7909 39 90 39C 92.2091 39 94 40.7909 94 43ZM 66 64C 68.2091 64 70 62.2091 70 60C 70 57.7909 68.2091 56 66 56C 63.7909 56 62 57.7909 62 60C 62 62.2091 63.7909 64 66 64ZM 99 78C 99 80.2091 97.2091 82 95 82C 92.7909 82 91 80.2091 91 78C 91 75.7909 92.7909 74 95 74C 97.2091 74 99 75.7909 99 78Z"/>
</defs>
</svg>
