<svg xmlns="http://www.w3.org/2000/svg" xmlns:xlink="http://www.w3.org/1999/xlink" preserveAspectRatio="xMidYMid" width="1500" height="910" viewBox="0 0 1500 910">
  <defs>
    <style>
      .cls-1, .cls-11 {
        fill: #3f3f3f;
      }

      .cls-2 {
        fill: #424242;
      }

      .cls-10, .cls-11, .cls-12, .cls-13, .cls-14, .cls-15, .cls-16, .cls-17, .cls-18, .cls-19, .cls-2, .cls-20, .cls-3, .cls-4, .cls-5, .cls-6, .cls-7, .cls-8, .cls-9 {
        fill-rule: evenodd;
      }

      .cls-3 {
        fill: #414141;
      }

      .cls-4 {
        fill: #3d3d3d;
      }

      .cls-5 {
        fill: #3b3b3b;
      }

      .cls-6 {
        fill: #3c3c3c;
      }

      .cls-7 {
        fill: #3e3e3e;
      }

      .cls-8 {
        fill: #444;
      }

      .cls-9 {
        fill: #404040;
      }

      .cls-10 {
        fill: #434343;
      }

      .cls-12 {
        fill: #3a3a3a;
      }

      .cls-13 {
        fill: #343434;
      }

      .cls-14 {
        fill: #373737;
      }

      .cls-15 {
        fill: #323232;
      }

      .cls-16 {
        fill: #313131;
      }

      .cls-17 {
        fill: #333;
      }

      .cls-18 {
        fill: #2c2c2c;
      }

      .cls-19 {
        fill: #393939;
      }

      .cls-20 {
        fill: #363636;
      }
    </style>
  </defs>
  <g>
    <rect x="-160" y="-21" width="2062" height="953" class="cls-1"/>
    <g>
      <path d="M167.000,434.000 L635.000,656.000 L626.000,136.000 L167.000,434.000 Z" class="cls-2"/>
      <path d="M167.000,434.000 L635.000,656.000 L93.000,793.000 L167.000,434.000 Z" class="cls-3"/>
      <path d="M167.000,434.000 L-232.000,651.000 L93.000,793.000 L167.000,434.000 Z" class="cls-4"/>
      <path d="M167.000,434.000 L-232.000,651.000 L-102.000,350.000 L167.000,434.000 Z" class="cls-5"/>
      <path d="M167.000,434.000 L106.000,61.000 L-102.000,350.000 L167.000,434.000 Z" class="cls-4"/>
      <path d="M-104.000,-116.000 L191.000,-58.000 L-102.000,350.000 L-104.000,-116.000 Z" class="cls-6"/>
      <path d="M167.000,434.000 L106.000,61.000 L624.000,137.000 L167.000,434.000 Z" class="cls-3"/>
      <path d="M378.000,-301.000 L106.000,61.000 L624.000,137.000 L378.000,-301.000 Z" class="cls-7"/>
      <path d="M634.000,657.000 L844.000,300.000 L625.000,136.000 L634.000,657.000 Z" class="cls-8"/>
      <path d="M828.000,-91.000 L844.000,300.000 L625.000,136.000 L828.000,-91.000 Z" class="cls-3"/>
      <path d="M828.000,-91.000 L515.000,-56.000 L625.000,136.000 L828.000,-91.000 Z" class="cls-9"/>
      <path d="M828.000,-91.000 L844.000,300.000 L1307.000,-68.000 L828.000,-91.000 Z" class="cls-10"/>
      <path d="M845.000,300.000 L636.000,656.000 L875.000,792.000 L845.000,300.000 Z" class="cls-11"/>
      <path d="M845.000,299.000 L875.000,789.000 L1146.000,507.000 L845.000,299.000 Z" class="cls-12"/>
      <path d="M845.000,299.000 L1263.000,-33.000 L1146.000,507.000 L845.000,299.000 Z" class="cls-4"/>
      <path d="M1517.000,188.000 L1263.000,-33.000 L1145.000,510.000 L1517.000,188.000 Z" class="cls-13"/>
      <path d="M1517.000,188.000 L1263.000,-33.000 L1605.000,-187.000 L1517.000,188.000 Z" class="cls-14"/>
      <path d="M1517.000,188.000 L1510.000,581.000 L1147.000,508.000 L1517.000,188.000 Z" class="cls-15"/>
      <path d="M1116.000,934.000 L875.000,786.000 L1147.000,508.000 L1116.000,934.000 Z" class="cls-16"/>
      <path d="M1116.000,934.000 L2459.000,616.000 L1147.000,508.000 L1116.000,934.000 Z" class="cls-17"/>
      <path d="M1116.000,934.000 L2459.000,616.000 L1333.000,1032.000 L1116.000,934.000 Z" class="cls-18"/>
      <path d="M1116.000,934.000 L875.000,786.000 L288.000,918.000 L1116.000,934.000 Z" class="cls-17"/>
      <path d="M634.000,659.000 L875.000,786.000 L288.000,918.000 L634.000,659.000 Z" class="cls-5"/>
      <path d="M634.000,659.000 L91.000,793.000 L288.000,918.000 L634.000,659.000 Z" class="cls-11"/>
      <path d="M-87.000,948.000 L91.000,793.000 L288.000,918.000 L-87.000,948.000 Z" class="cls-19"/>
      <path d="M-87.000,948.000 L91.000,793.000 L-77.000,721.000 L-87.000,948.000 Z" class="cls-20"/>
    </g>
  </g>
</svg>
